<svg xmlns="http://www.w3.org/2000/svg" viewBox="0 0 100 100" fill-rule="evenodd"><g><path d="m30.957 46.404 17.058 28.549c.268.449.751.726 1.274.73h.013c.518 0 1-.268 1.274-.708l17.756-28.549c.044-.071.082-.145.112-.22a21.943 21.943 0 0 0 3.243-11.47c0-12.15-9.887-22.035-22.04-22.035-12.149 0-22.034 9.885-22.034 22.035 0 4.044 1.121 8.005 3.245 11.473.028.067.061.132.099.195zm18.691-30.702c10.499 0 19.04 8.539 19.04 19.035 0 3.565-1.011 7.058-2.923 10.1a1.326 1.326 0 0 0-.115.225l-16.322 26.24-15.666-26.219a1.507 1.507 0 0 0-.125-.247 18.962 18.962 0 0 1-2.923-10.1c0-10.495 8.539-19.034 19.034-19.034z" stroke-width="1" stroke="#fc0102" fill="#fc0102"></path><path d="M49.651 42.93c4.517 0 8.192-3.675 8.192-8.192s-3.675-8.192-8.192-8.192-8.192 3.675-8.192 8.192 3.675 8.192 8.192 8.192zm0-13.384a5.198 5.198 0 0 1 5.192 5.192 5.198 5.198 0 0 1-5.192 5.192 5.198 5.198 0 0 1-5.192-5.192 5.197 5.197 0 0 1 5.192-5.192zm18.944 54.752H30.706a1.5 1.5 0 1 0 0 3h37.889a1.5 1.5 0 0 0 0-3z" stroke-width="1" stroke="#fc0102" fill="#fc0102"></path></g></svg>
