<svg xmlns="http://www.w3.org/2000/svg" viewBox="0 0 100 100" fill-rule="evenodd"><rect x="0" y="0" width="100" height="100" fill="#ffffff"></rect><g style="transform-origin:center;transform:scale(0.7);"><path d="M87.355 45.955a1.5 1.5 0 0 0-.326-2.096L71.535 32.531l-.064-.048c-.81-1.39-1.06-2.634-.634-3.215.397-.543 1.567-.702 3.026-.425.152.067.318.11.493.124 1.998.15 3.589-.444 4.495-1.674 1.07-1.463.985-3.521-.24-5.795-1.038-1.928-2.827-3.879-5.035-5.493-3.27-2.389-6.912-3.622-9.493-3.219-1.237.193-2.225.754-2.853 1.614-.769 1.042-.944 2.442-.512 3.99-.02.306.056.614.221.882.917 1.484 1.22 2.839.77 3.454-.396.543-1.558.703-3.007.425L42.954 11.643a1.498 1.498 0 0 0-2.095.326L29.163 27.974a1.499 1.499 0 0 0-.252.554c-.651 2.874-.099 5.201 1.519 6.386 1.623 1.179 3.988 1.001 6.525-.482a.014.014 0 0 0 .007-.002c.799-.303 1.475-.341 1.81-.093.27.196.382.6.43.904.229 1.477-.511 4.293-2.682 7.261-2.166 2.968-4.627 4.528-6.104 4.757-.303.047-.72.062-.987-.133-.32-.235-.488-.815-.469-1.607.639-2.888.097-5.132-1.533-6.327-1.682-1.223-4.162-.986-6.801.645a1.492 1.492 0 0 0-.423.392L8.647 56.046a1.5 1.5 0 0 0 .326 2.096l16.009 11.7c.166.122.355.207.556.252 2.918.656 5.187.117 6.382-1.519 1.16-1.583 1.013-3.884-.389-6.368a1.516 1.516 0 0 0-.058-.196c-.283-.77-.307-1.4-.066-1.729.705-.964 4.323-.556 8.168 2.25 3.839 2.811 5.321 6.132 4.619 7.093-.219.298-.753.466-1.462.47a1.657 1.657 0 0 0-.153-.043c-2.875-.644-5.2-.088-6.383 1.526-1.236 1.699-1.007 4.114.646 6.8.102.166.235.31.393.425l15.813 11.555a1.498 1.498 0 0 0 2.096-.326l11.431-15.637c1.39-.806 2.634-1.056 3.212-.63.488.358.971 1.857.599 3.661-.036.12-.059.244-.063.37-.11 2.433.855 3.668 1.688 4.277 2.764 2.015 7.616-.251 11.281-5.273 1.615-2.209 2.728-4.611 3.133-6.764.479-2.538-.064-4.524-1.534-5.598-.807-.583-2.222-1.121-4.395-.373a1.504 1.504 0 0 0-.298.141c-1.65 1.019-3.287.863-3.87.439-.542-.397-.703-1.562-.429-3.013l11.456-15.677zM74.558 67.066c1.774 1.292 4.65 1.198 7.054-.212.446-.138 1.122-.272 1.515.01.449.328.587 1.355.35 2.616-.32 1.698-1.271 3.72-2.608 5.55-2.803 3.841-6.126 5.322-7.09 4.62-.312-.229-.479-.798-.465-1.574.588-2.783-.126-5.539-1.754-6.731-1.676-1.23-4.159-.996-6.808.645a1.506 1.506 0 0 0-.421.39L53.606 87.05 39.251 76.559c-.803-1.393-1.052-2.637-.633-3.213.391-.533 1.523-.697 2.937-.442.182.096.384.156.6.17 1.973.136 3.563-.458 4.459-1.677 2.018-2.759-.247-7.612-5.27-11.289C36.313 56.437 31 55.752 28.985 58.51c-.776 1.062-.944 2.487-.487 4.051 0 .276.076.549.225.788.919 1.487 1.225 2.842.776 3.453-.395.541-1.555.701-3.009.425L11.954 56.603l10.491-14.361c1.39-.803 2.635-1.048 3.213-.628.558.409.71 1.631.397 3.139a1.478 1.478 0 0 0-.083.414c-.113 1.947.485 3.501 1.685 4.379.866.635 1.978.869 3.219.677 2.589-.402 5.68-2.683 8.066-5.951 2.391-3.268 3.625-6.905 3.223-9.492-.192-1.24-.754-2.23-1.617-2.861-1.116-.824-2.64-.966-4.325-.409-.2.029-.396.098-.574.209-1.485.917-2.843 1.217-3.449.773-.542-.397-.701-1.561-.424-3.008L42.397 14.95l14.798 10.815c.165.121.354.207.554.252 2.919.661 5.187.12 6.383-1.519 1.148-1.567 1.021-3.833-.333-6.281a1.625 1.625 0 0 0-.073-.28c-.292-.788-.32-1.427-.074-1.761.193-.266.594-.377.896-.424 1.479-.23 4.294.508 7.262 2.677 1.827 1.335 3.345 2.973 4.164 4.493.608 1.13.789 2.151.463 2.597-.237.321-.803.488-1.574.471l-.063-.016c-2.922-.652-5.185-.11-6.38 1.523-1.23 1.679-.994 4.159.647 6.805.1.16.228.3.379.412l14.606 10.681-10.765 14.727a1.502 1.502 0 0 0-.253.558c-.656 2.919-.115 5.186 1.524 6.386z" stroke-width="0" stroke="#fc0102" fill="#fc0102"></path></g></svg>
