<svg xmlns="http://www.w3.org/2000/svg" viewBox="0 0 100 100" fill-rule="evenodd"><rect x="0" y="0" width="100" height="100" fill="#ffffff"></rect><g style="transform-origin:center;transform:scale(0.7);"><path d="M52.5 79h-34a28.45 28.45 0 0 1 28.35-27 28.12 28.12 0 0 1 15.33 4.53A1.5 1.5 0 0 0 63.82 54a31.12 31.12 0 0 0-17-5A31.46 31.46 0 0 0 15.5 80.5 1.5 1.5 0 0 0 17 82h35.5a1.5 1.5 0 0 0 0-3ZM47 45.5A18.5 18.5 0 1 0 28.5 27 18.53 18.53 0 0 0 47 45.5Zm0-34A15.5 15.5 0 1 1 31.5 27 15.52 15.52 0 0 1 47 11.5Z" stroke-width="0" stroke="#fc0102" fill="#fc0102"></path><path d="m90.06 65.36-5.59-5.59a1.5 1.5 0 0 0-2.12 2.12l2.1 2.11h-23a1.5 1.5 0 0 0 0 3H86.3l-4 4a1.5 1.5 0 1 0 2.12 2.12l5.59-5.59a1.5 1.5 0 0 0 0-2.12ZM87.5 78H62l4.12-4.12A1.5 1.5 0 0 0 64 71.75l-5.59 5.59a1.5 1.5 0 0 0 0 2.12l5.59 5.6a1.5 1.5 0 1 0 2.12-2.12L64.15 81H87.5a1.5 1.5 0 0 0 0-3Z" stroke-width="0" stroke="#fc0102" fill="#fc0102"></path></g></svg>
